<svg width="287" height="33" viewBox="0 0 287 33" fill="none" xmlns="http://www.w3.org/2000/svg">
<path d="M15.7068 26V25.28C16.4748 25.232 17.0508 25.136 17.4348 24.992C17.8188 24.848 18.0708 24.56 18.1908 24.128C18.3348 23.696 18.4068 23.048 18.4068 22.184V4.328C18.4068 3.44 18.3348 2.792 18.1908 2.384C18.0708 1.952 17.8068 1.664 17.3987 1.52C17.0148 1.352 16.4508 1.256 15.7068 1.232V0.512C16.3548 0.536 17.1948 0.559999 18.2267 0.583999C19.2828 0.607999 20.3268 0.619998 21.3588 0.619998C22.4628 0.619998 23.4948 0.607999 24.4548 0.583999C25.4388 0.559999 26.2308 0.536 26.8308 0.512V1.232C26.0628 1.256 25.4748 1.352 25.0668 1.52C24.6828 1.664 24.4308 1.952 24.3108 2.384C24.1908 2.792 24.1308 3.44 24.1308 4.328V22.184C24.1308 23.048 24.1908 23.696 24.3108 24.128C24.4548 24.56 24.7188 24.848 25.1028 24.992C25.4868 25.136 26.0628 25.232 26.8308 25.28V26C26.2308 25.952 25.4388 25.928 24.4548 25.928C23.4948 25.904 22.4628 25.892 21.3588 25.892C20.3268 25.892 19.2828 25.904 18.2267 25.928C17.1948 25.928 16.3548 25.952 15.7068 26ZM0.44275 26V25.28C1.21075 25.232 1.78675 25.136 2.17075 24.992C2.55475 24.848 2.80675 24.56 2.92675 24.128C3.07075 23.696 3.14275 23.048 3.14275 22.184V4.328C3.14275 3.44 3.07075 2.792 2.92675 2.384C2.80675 1.952 2.54275 1.664 2.13475 1.52C1.75075 1.352 1.18675 1.256 0.44275 1.232V0.512C1.06675 0.536 1.87075 0.559999 2.85475 0.583999C3.86275 0.607999 4.95475 0.619998 6.13075 0.619998C7.13875 0.619998 8.13475 0.607999 9.11875 0.583999C10.1028 0.559999 10.9188 0.536 11.5668 0.512V1.232C10.7988 1.256 10.2108 1.352 9.80275 1.52C9.41875 1.664 9.16675 1.952 9.04675 2.384C8.92675 2.792 8.86675 3.44 8.86675 4.328V22.184C8.86675 23.048 8.92675 23.696 9.04675 24.128C9.19075 24.56 9.45475 24.848 9.83875 24.992C10.2228 25.136 10.7988 25.232 11.5668 25.28V26C10.9188 25.952 10.1028 25.928 9.11875 25.928C8.13475 25.904 7.13875 25.892 6.13075 25.892C4.95475 25.892 3.86275 25.904 2.85475 25.928C1.87075 25.928 1.06675 25.952 0.44275 26ZM6.52675 13.544V12.824H20.7468V13.544H6.52675ZM41.2597 0.439999L50.0077 22.976C50.3437 23.84 50.7157 24.44 51.1237 24.776C51.5557 25.088 51.9397 25.256 52.2757 25.28V26C51.5557 25.952 50.7037 25.928 49.7197 25.928C48.7597 25.904 47.7877 25.892 46.8037 25.892C45.6997 25.892 44.6557 25.904 43.6717 25.928C42.6877 25.928 41.9077 25.952 41.3317 26V25.28C42.5557 25.232 43.3237 25.028 43.6357 24.668C43.9717 24.284 43.8997 23.48 43.4197 22.256L37.2997 5.516L37.9477 4.58L32.4757 18.836C31.8037 20.612 31.4677 21.956 31.4677 22.868C31.4917 23.78 31.7917 24.404 32.3677 24.74C32.9437 25.052 33.7117 25.232 34.6717 25.28V26C33.8797 25.952 33.1237 25.928 32.4037 25.928C31.6837 25.904 30.9517 25.892 30.2077 25.892C29.6797 25.892 29.1757 25.904 28.6957 25.928C28.2397 25.928 27.8317 25.952 27.4717 26V25.28C27.9757 25.184 28.4917 24.86 29.0197 24.308C29.5477 23.756 30.0637 22.82 30.5677 21.5L38.7757 0.439999C39.1597 0.463998 39.5677 0.475998 39.9997 0.475998C40.4557 0.475998 40.8757 0.463998 41.2597 0.439999ZM43.7797 15.632V16.352H33.0517L33.4117 15.632H43.7797ZM91.1554 0.512V1.232C90.4114 1.256 89.8354 1.352 89.4274 1.52C89.0434 1.664 88.7794 1.952 88.6354 2.384C88.5154 2.792 88.4554 3.44 88.4554 4.328V22.184C88.4554 23.048 88.5154 23.696 88.6354 24.128C88.7794 24.56 89.0434 24.848 89.4274 24.992C89.8354 25.136 90.4114 25.232 91.1554 25.28V26C90.5794 25.952 89.7994 25.928 88.8154 25.928C87.8554 25.904 86.8114 25.892 85.6834 25.892C84.5314 25.892 83.3554 25.916 82.1554 25.964C80.9794 25.988 79.8874 26 78.8794 26C78.3034 26 77.6314 25.988 76.8634 25.964C76.1194 25.94 75.3514 25.928 74.5594 25.928C73.7674 25.904 73.0234 25.892 72.3274 25.892C71.2234 25.892 70.0594 25.916 68.8354 25.964C67.6354 25.988 66.5434 26 65.5594 26C64.5514 26 63.4474 25.988 62.2474 25.964C61.0474 25.916 59.8714 25.892 58.7194 25.892C57.5914 25.892 56.5354 25.904 55.5514 25.928C54.5914 25.928 53.8234 25.952 53.2474 26V25.28C53.9914 25.232 54.5554 25.136 54.9394 24.992C55.3474 24.848 55.6114 24.56 55.7314 24.128C55.8754 23.696 55.9474 23.048 55.9474 22.184V4.328C55.9474 3.44 55.8754 2.792 55.7314 2.384C55.6114 1.952 55.3474 1.664 54.9394 1.52C54.5554 1.352 53.9914 1.256 53.2474 1.232V0.512C53.8714 0.536 54.6754 0.559999 55.6594 0.583999C56.6674 0.607999 57.7594 0.619998 58.9354 0.619998C59.8714 0.619998 60.7954 0.607999 61.7074 0.583999C62.6194 0.559999 63.3874 0.536 64.0114 0.512V1.232C63.3394 1.256 62.8354 1.352 62.4994 1.52C62.1874 1.664 61.9714 1.952 61.8514 2.384C61.7314 2.792 61.6714 3.44 61.6714 4.328V22.184C61.6714 23.504 61.8514 24.356 62.2114 24.74C62.5714 25.1 63.3634 25.28 64.5874 25.28H66.4234C67.6474 25.28 68.4394 25.1 68.7994 24.74C69.1594 24.356 69.3394 23.504 69.3394 22.184V4.328C69.3394 3.44 69.2794 2.792 69.1594 2.384C69.0634 1.952 68.8474 1.664 68.5114 1.52C68.1754 1.352 67.6714 1.256 66.9994 1.232V0.512C67.6234 0.536 68.3914 0.559999 69.3034 0.583999C70.2394 0.607999 71.1634 0.619998 72.0754 0.619998C73.1554 0.619998 74.1634 0.607999 75.0994 0.583999C76.0594 0.559999 76.8274 0.536 77.4034 0.512V1.232C76.7554 1.256 76.2514 1.352 75.8914 1.52C75.5554 1.664 75.3274 1.952 75.2074 2.384C75.1114 2.792 75.0634 3.44 75.0634 4.328V22.184C75.0634 23.504 75.2554 24.344 75.6394 24.704C76.0474 25.064 76.8274 25.256 77.9794 25.28H79.8154C81.0394 25.28 81.8314 25.1 82.1914 24.74C82.5514 24.356 82.7314 23.504 82.7314 22.184V4.328C82.7314 3.44 82.6714 2.792 82.5514 2.384C82.4554 1.952 82.2394 1.664 81.9034 1.52C81.5674 1.352 81.0634 1.256 80.3914 1.232V0.512C81.0154 0.536 81.7834 0.559999 82.6954 0.583999C83.6314 0.607999 84.5554 0.619998 85.4674 0.619998C86.6194 0.619998 87.6994 0.607999 88.7074 0.583999C89.7394 0.559999 90.5554 0.536 91.1554 0.512ZM104.731 0.512V1.232C103.963 1.256 103.387 1.352 103.003 1.52C102.619 1.664 102.355 1.952 102.211 2.384C102.091 2.792 102.031 3.44 102.031 4.328V22.184C102.031 23.048 102.091 23.696 102.211 24.128C102.355 24.56 102.619 24.848 103.003 24.992C103.387 25.136 103.963 25.232 104.731 25.28V26C104.083 25.952 103.267 25.928 102.283 25.928C101.299 25.904 100.303 25.892 99.2948 25.892C98.1188 25.892 97.0268 25.904 96.0188 25.928C95.0348 25.928 94.2308 25.952 93.6068 26V25.28C94.3508 25.232 94.9148 25.136 95.2988 24.992C95.7068 24.848 95.9708 24.56 96.0908 24.128C96.2348 23.696 96.3068 23.048 96.3068 22.184V4.328C96.3068 3.44 96.2348 2.792 96.0908 2.384C95.9708 1.952 95.7068 1.664 95.2988 1.52C94.9148 1.352 94.3508 1.256 93.6068 1.232V0.512C94.2308 0.536 95.0348 0.559999 96.0188 0.583999C97.0268 0.607999 98.1188 0.619998 99.2948 0.619998C100.303 0.619998 101.299 0.607999 102.283 0.583999C103.267 0.559999 104.083 0.536 104.731 0.512ZM113.011 2.492C113.011 2.492 113.011 2.624 113.011 2.888C113.011 3.128 113.011 3.38 113.011 3.644C113.035 3.908 113.047 4.04 113.047 4.04L101.023 24.38L100.699 23.372L113.011 2.492ZM120.715 0.512V1.232C119.947 1.256 119.371 1.352 118.987 1.52C118.603 1.664 118.339 1.952 118.195 2.384C118.075 2.792 118.015 3.44 118.015 4.328V22.184C118.015 23.048 118.075 23.696 118.195 24.128C118.339 24.56 118.603 24.848 118.987 24.992C119.371 25.136 119.947 25.232 120.715 25.28V26C120.091 25.952 119.275 25.928 118.267 25.928C117.259 25.904 116.179 25.892 115.027 25.892C114.019 25.892 113.011 25.904 112.003 25.928C111.019 25.928 110.215 25.952 109.591 26V25.28C110.335 25.232 110.899 25.136 111.283 24.992C111.667 24.848 111.931 24.56 112.075 24.128C112.219 23.696 112.291 23.048 112.291 22.184V4.328C112.291 3.44 112.219 2.792 112.075 2.384C111.931 1.952 111.667 1.664 111.283 1.52C110.899 1.352 110.335 1.256 109.591 1.232V0.512C110.215 0.536 111.019 0.559999 112.003 0.583999C113.011 0.607999 114.019 0.619998 115.027 0.619998C116.179 0.619998 117.259 0.607999 118.267 0.583999C119.275 0.559999 120.091 0.536 120.715 0.512ZM150.368 0.512C150.272 1.568 150.2 2.588 150.152 3.572C150.128 4.556 150.116 5.312 150.116 5.84C150.116 6.32 150.128 6.776 150.152 7.208C150.176 7.64 150.2 8 150.224 8.288H149.396C149.084 6.536 148.652 5.156 148.1 4.148C147.572 3.116 146.924 2.396 146.156 1.988C145.388 1.556 144.5 1.34 143.492 1.34H142.448C141.728 1.34 141.188 1.4 140.828 1.52C140.492 1.64 140.264 1.88 140.144 2.24C140.024 2.576 139.964 3.128 139.964 3.896V22.184C139.964 23.408 140.084 24.236 140.324 24.668C140.588 25.076 141.152 25.28 142.016 25.28C143.216 25.28 144.14 25.016 144.788 24.488C145.436 23.936 145.892 23.156 146.156 22.148C146.42 21.14 146.552 19.952 146.552 18.584C146.552 17.168 146.396 15.932 146.084 14.876C145.796 13.82 145.28 13.004 144.536 12.428C143.792 11.828 142.736 11.528 141.368 11.528C141.032 11.528 140.624 11.528 140.144 11.528C139.688 11.528 139.232 11.54 138.776 11.564C138.344 11.564 137.96 11.564 137.624 11.564V10.844C138.44 10.844 139.244 10.844 140.036 10.844C140.852 10.82 141.536 10.808 142.088 10.808C144.032 10.808 145.676 11.024 147.02 11.456C148.364 11.888 149.432 12.464 150.224 13.184C151.04 13.88 151.628 14.684 151.988 15.596C152.348 16.508 152.528 17.456 152.528 18.44C152.528 19.808 152.18 21.068 151.484 22.22C150.788 23.348 149.684 24.26 148.172 24.956C146.684 25.628 144.716 25.964 142.268 25.964C141.668 25.964 140.936 25.952 140.072 25.928C139.208 25.904 138.116 25.892 136.796 25.892C135.932 25.892 134.984 25.904 133.952 25.928C132.944 25.928 132.14 25.952 131.54 26V25.28C132.284 25.232 132.848 25.136 133.232 24.992C133.64 24.848 133.904 24.56 134.024 24.128C134.168 23.696 134.24 23.048 134.24 22.184V4.328C134.24 3.44 134.168 2.792 134.024 2.384C133.904 1.952 133.652 1.664 133.268 1.52C132.884 1.352 132.308 1.256 131.54 1.232V0.512C132.836 0.536 134.24 0.559999 135.752 0.583999C137.264 0.607999 138.692 0.619998 140.036 0.619998C141.38 0.619998 142.46 0.619998 143.276 0.619998C144.308 0.619998 145.484 0.619998 146.804 0.619998C148.124 0.595999 149.312 0.559999 150.368 0.512ZM154.884 0.512C155.484 0.536 156.288 0.559999 157.296 0.583999C158.328 0.607999 159.348 0.619998 160.356 0.619998C161.508 0.619998 162.624 0.607999 163.704 0.583999C164.784 0.559999 165.552 0.547999 166.008 0.547999C169.344 0.547999 171.84 1.208 173.496 2.528C175.152 3.848 175.98 5.552 175.98 7.64C175.98 8.504 175.812 9.416 175.476 10.376C175.14 11.312 174.564 12.188 173.748 13.004C172.956 13.796 171.864 14.444 170.472 14.948C169.08 15.452 167.328 15.704 165.216 15.704H161.544V14.984H164.856C166.272 14.984 167.34 14.66 168.06 14.012C168.804 13.364 169.308 12.512 169.572 11.456C169.86 10.4 170.004 9.26 170.004 8.036C170.004 5.756 169.668 4.052 168.996 2.924C168.324 1.796 167.172 1.232 165.54 1.232C164.604 1.232 163.992 1.436 163.704 1.844C163.44 2.252 163.308 3.08 163.308 4.328V21.968C163.308 22.904 163.404 23.6 163.596 24.056C163.788 24.512 164.16 24.812 164.712 24.956C165.264 25.1 166.08 25.184 167.16 25.208V26C166.416 25.976 165.456 25.952 164.28 25.928C163.104 25.904 161.868 25.892 160.572 25.892C159.54 25.892 158.532 25.904 157.548 25.928C156.564 25.952 155.676 25.976 154.884 26V25.28C155.652 25.232 156.228 25.136 156.612 24.992C156.996 24.848 157.248 24.56 157.368 24.128C157.512 23.696 157.584 23.048 157.584 22.184V4.328C157.584 3.44 157.512 2.792 157.368 2.384C157.248 1.952 156.984 1.664 156.576 1.52C156.192 1.352 155.628 1.256 154.884 1.232V0.512ZM197.031 0.512C196.935 1.568 196.863 2.588 196.815 3.572C196.791 4.556 196.779 5.312 196.779 5.84C196.779 6.32 196.791 6.776 196.815 7.208C196.839 7.64 196.863 8 196.887 8.288H196.059C195.819 6.536 195.447 5.156 194.943 4.148C194.439 3.116 193.779 2.396 192.963 1.988C192.171 1.556 191.235 1.34 190.155 1.34H188.679C187.959 1.34 187.419 1.4 187.059 1.52C186.723 1.64 186.495 1.88 186.375 2.24C186.255 2.576 186.195 3.128 186.195 3.896V22.616C186.195 23.36 186.255 23.912 186.375 24.272C186.495 24.632 186.723 24.872 187.059 24.992C187.419 25.112 187.959 25.172 188.679 25.172H190.443C191.523 25.172 192.471 24.944 193.287 24.488C194.127 24.008 194.835 23.204 195.411 22.076C196.011 20.948 196.467 19.424 196.779 17.504H197.607C197.535 18.272 197.499 19.28 197.499 20.528C197.499 21.08 197.511 21.86 197.535 22.868C197.559 23.876 197.631 24.92 197.751 26C196.527 25.952 195.147 25.928 193.611 25.928C192.075 25.904 190.707 25.892 189.507 25.892C188.691 25.892 187.611 25.892 186.267 25.892C184.923 25.892 183.495 25.904 181.983 25.928C180.471 25.928 179.067 25.952 177.771 26V25.28C178.539 25.232 179.115 25.136 179.499 24.992C179.883 24.848 180.135 24.56 180.255 24.128C180.399 23.696 180.471 23.048 180.471 22.184V4.328C180.471 3.44 180.399 2.792 180.255 2.384C180.135 1.952 179.871 1.664 179.463 1.52C179.079 1.352 178.515 1.256 177.771 1.232V0.512C179.067 0.536 180.471 0.559999 181.983 0.583999C183.495 0.607999 184.923 0.619998 186.267 0.619998C187.611 0.619998 188.691 0.619998 189.507 0.619998C190.611 0.619998 191.859 0.619998 193.251 0.619998C194.667 0.595999 195.927 0.559999 197.031 0.512ZM191.415 12.824C191.415 12.824 191.415 12.944 191.415 13.184C191.415 13.424 191.415 13.544 191.415 13.544H185.115C185.115 13.544 185.115 13.424 185.115 13.184C185.115 12.944 185.115 12.824 185.115 12.824H191.415ZM192.459 8.072C192.363 9.44 192.315 10.484 192.315 11.204C192.339 11.924 192.351 12.584 192.351 13.184C192.351 13.784 192.363 14.444 192.387 15.164C192.411 15.884 192.471 16.928 192.567 18.296H191.739C191.619 17.456 191.391 16.676 191.055 15.956C190.743 15.236 190.287 14.66 189.687 14.228C189.087 13.772 188.307 13.544 187.347 13.544V12.824C188.307 12.824 189.075 12.56 189.651 12.032C190.227 11.504 190.671 10.88 190.983 10.16C191.295 9.416 191.511 8.72 191.631 8.072H192.459ZM215.851 26V25.28C216.619 25.232 217.195 25.136 217.579 24.992C217.963 24.848 218.215 24.56 218.335 24.128C218.479 23.696 218.551 23.048 218.551 22.184V4.328C218.551 3.44 218.479 2.792 218.335 2.384C218.215 1.952 217.951 1.664 217.543 1.52C217.159 1.352 216.595 1.256 215.851 1.232V0.512C216.499 0.536 217.339 0.559999 218.371 0.583999C219.427 0.607999 220.471 0.619998 221.503 0.619998C222.607 0.619998 223.639 0.607999 224.599 0.583999C225.583 0.559999 226.375 0.536 226.975 0.512V1.232C226.207 1.256 225.619 1.352 225.211 1.52C224.827 1.664 224.575 1.952 224.455 2.384C224.335 2.792 224.275 3.44 224.275 4.328V22.184C224.275 23.048 224.335 23.696 224.455 24.128C224.599 24.56 224.863 24.848 225.247 24.992C225.631 25.136 226.207 25.232 226.975 25.28V26C226.375 25.952 225.583 25.928 224.599 25.928C223.639 25.904 222.607 25.892 221.503 25.892C220.471 25.892 219.427 25.904 218.371 25.928C217.339 25.928 216.499 25.952 215.851 26ZM200.587 26V25.28C201.355 25.232 201.931 25.136 202.315 24.992C202.699 24.848 202.951 24.56 203.071 24.128C203.215 23.696 203.287 23.048 203.287 22.184V4.328C203.287 3.44 203.215 2.792 203.071 2.384C202.951 1.952 202.687 1.664 202.279 1.52C201.895 1.352 201.331 1.256 200.587 1.232V0.512C201.211 0.536 202.015 0.559999 202.999 0.583999C204.007 0.607999 205.099 0.619998 206.275 0.619998C207.283 0.619998 208.279 0.607999 209.263 0.583999C210.247 0.559999 211.063 0.536 211.711 0.512V1.232C210.943 1.256 210.355 1.352 209.947 1.52C209.563 1.664 209.311 1.952 209.191 2.384C209.071 2.792 209.011 3.44 209.011 4.328V22.184C209.011 23.048 209.071 23.696 209.191 24.128C209.335 24.56 209.599 24.848 209.983 24.992C210.367 25.136 210.943 25.232 211.711 25.28V26C211.063 25.952 210.247 25.928 209.263 25.928C208.279 25.904 207.283 25.892 206.275 25.892C205.099 25.892 204.007 25.904 202.999 25.928C202.015 25.928 201.211 25.952 200.587 26ZM206.671 13.544V12.824H220.891V13.544H206.671ZM250.26 0.512V1.232C249.444 1.256 248.82 1.352 248.388 1.52C247.98 1.664 247.704 1.952 247.56 2.384C247.416 2.792 247.344 3.44 247.344 4.328V22.184C247.344 23.504 247.512 24.356 247.848 24.74C248.184 25.1 248.916 25.28 250.044 25.28H251.124C251.028 26.216 250.956 27.116 250.908 27.98C250.884 28.844 250.872 29.504 250.872 29.96C250.872 30.92 250.908 31.7 250.98 32.3H250.152C249.912 30.716 249.528 29.456 249 28.52C248.472 27.608 247.788 26.96 246.948 26.576C246.132 26.192 245.16 26 244.032 26H235.32C234.192 26 233.208 26.192 232.368 26.576C231.552 26.96 230.88 27.608 230.352 28.52C229.824 29.456 229.44 30.716 229.2 32.3H228.372C228.444 31.7 228.48 30.92 228.48 29.96C228.48 29.504 228.456 28.844 228.408 27.98C228.384 27.116 228.324 26.216 228.228 25.28H238.704C239.928 25.28 240.72 25.1 241.08 24.74C241.44 24.356 241.62 23.504 241.62 22.184V4.328C241.62 3.008 241.428 2.168 241.044 1.808C240.684 1.424 240.048 1.232 239.136 1.232H238.668C238.164 1.232 237.756 1.316 237.444 1.484C237.132 1.628 236.892 1.928 236.724 2.384C236.58 2.816 236.472 3.464 236.4 4.328C236.256 5.96 236.112 7.748 235.968 9.692C235.848 11.636 235.656 13.568 235.392 15.488C235.152 17.384 234.78 19.124 234.276 20.708C233.796 22.292 233.124 23.564 232.26 24.524C231.396 25.484 230.268 25.964 228.876 25.964V25.28C229.98 25.28 230.904 24.872 231.648 24.056C232.392 23.216 232.992 22.088 233.448 20.672C233.904 19.256 234.264 17.648 234.528 15.848C234.816 14.024 235.032 12.128 235.176 10.16C235.32 8.192 235.452 6.248 235.572 4.328C235.644 3.056 235.5 2.24 235.14 1.88C234.78 1.496 233.952 1.28 232.656 1.232V0.512C233.16 0.536 233.76 0.559999 234.456 0.583999C235.152 0.607999 235.788 0.619998 236.364 0.619998C236.916 0.619998 237.444 0.607999 237.948 0.583999C238.476 0.536 239.004 0.512 239.532 0.512C240.444 0.512 241.272 0.536 242.016 0.583999C242.76 0.607999 243.648 0.619998 244.68 0.619998C245.28 0.619998 245.928 0.619998 246.624 0.619998C247.344 0.595999 248.016 0.583999 248.64 0.583999C249.288 0.559999 249.828 0.536 250.26 0.512ZM264.277 0.512V1.232C263.437 1.256 262.801 1.352 262.369 1.52C261.937 1.664 261.649 1.952 261.505 2.384C261.361 2.792 261.289 3.44 261.289 4.328V22.184C261.289 23.408 261.409 24.236 261.649 24.668C261.913 25.076 262.489 25.28 263.377 25.28C264.553 25.28 265.465 25.004 266.113 24.452C266.761 23.9 267.217 23.132 267.481 22.148C267.745 21.14 267.877 19.952 267.877 18.584C267.877 17.216 267.721 16.004 267.409 14.948C267.121 13.868 266.617 13.028 265.897 12.428C265.177 11.828 264.157 11.528 262.837 11.528C262.189 11.528 261.505 11.54 260.785 11.564C260.089 11.564 259.477 11.564 258.949 11.564V10.844C259.765 10.844 260.569 10.844 261.361 10.844C262.177 10.82 262.861 10.808 263.413 10.808C266.029 10.808 268.093 11.144 269.605 11.816C271.141 12.464 272.233 13.34 272.881 14.444C273.529 15.548 273.853 16.76 273.853 18.08C273.853 19.112 273.661 20.108 273.277 21.068C272.893 22.028 272.281 22.88 271.441 23.624C270.625 24.344 269.569 24.92 268.273 25.352C266.977 25.76 265.417 25.964 263.593 25.964C263.041 25.964 262.309 25.952 261.397 25.928C260.509 25.904 259.465 25.892 258.265 25.892C257.305 25.892 256.309 25.904 255.277 25.928C254.269 25.928 253.465 25.952 252.865 26V25.28C253.609 25.232 254.173 25.136 254.557 24.992C254.965 24.848 255.229 24.56 255.349 24.128C255.493 23.696 255.565 23.048 255.565 22.184V4.328C255.565 3.44 255.493 2.792 255.349 2.384C255.229 1.952 254.965 1.664 254.557 1.52C254.173 1.352 253.609 1.256 252.865 1.232V0.512C253.465 0.536 254.269 0.559999 255.277 0.583999C256.309 0.607999 257.401 0.619998 258.553 0.619998C259.609 0.619998 260.653 0.607999 261.685 0.583999C262.741 0.559999 263.605 0.536 264.277 0.512ZM286.597 0.512V1.232C285.829 1.256 285.241 1.352 284.833 1.52C284.449 1.664 284.197 1.952 284.077 2.384C283.957 2.792 283.897 3.44 283.897 4.328V22.184C283.897 23.048 283.957 23.696 284.077 24.128C284.221 24.56 284.485 24.848 284.869 24.992C285.253 25.136 285.829 25.232 286.597 25.28V26C285.949 25.952 285.133 25.928 284.149 25.928C283.165 25.904 282.169 25.892 281.161 25.892C280.009 25.892 278.917 25.904 277.885 25.928C276.877 25.928 276.073 25.952 275.473 26V25.28C276.241 25.232 276.817 25.136 277.201 24.992C277.585 24.848 277.837 24.56 277.957 24.128C278.101 23.696 278.173 23.048 278.173 22.184V4.328C278.173 3.44 278.101 2.792 277.957 2.384C277.813 1.952 277.549 1.664 277.165 1.52C276.781 1.352 276.217 1.256 275.473 1.232V0.512C276.073 0.536 276.877 0.559999 277.885 0.583999C278.917 0.607999 280.009 0.619998 281.161 0.619998C282.169 0.619998 283.165 0.607999 284.149 0.583999C285.133 0.559999 285.949 0.536 286.597 0.512Z" fill="white"/>
</svg>
